<?xml version="1.0" encoding="utf-8"?>
<!-- Generator: Adobe Illustrator 22.0.1, SVG Export Plug-In . SVG Version: 6.00 Build 0)  -->
<svg version="1.1" xmlns="http://www.w3.org/2000/svg" xmlns:xlink="http://www.w3.org/1999/xlink" x="0px" y="0px"
	 viewBox="0 0 600 209" style="enable-background:new 0 0 600 209;" xml:space="preserve">
<style type="text/css">
	.st0{opacity:0.1;clip-path:url(#SVGID_2_);}
	.st1{fill:#FFFFFF;}
	.st2{clip-path:url(#SVGID_2_);}
	.st3{fill:#FBEC1C;}
	.st4{fill:#7FCE16;}
	.st5{fill:#6AB91A;}
	.st6{fill:#008E0D;}
	.st7{fill:#147215;}
	.st8{display:none;clip-path:url(#SVGID_2_);fill:none;stroke:#FFFFFF;stroke-width:5;stroke-miterlimit:10;}
</style>
<g id="Layer_1">
</g>
<g id="Layer_4">
	<g>
		<path d="M209.1,127.3h-6.2l7.1-40.5h14.1c3.9,0,6.9,1,8.9,2.9c2.1,1.9,3.1,4.5,3.1,7.8c0,0.8,0,1.5-0.1,2.3
			c-0.4,2.8-1.4,5.1-3.1,7c-1.7,1.9-3.8,3.2-6.3,3.9l5.5,16.6h-6.5l-5-15.7c-0.3,0-1,0-2,0h-6.8L209.1,127.3z M222.7,92.2h-7.4
			l-2.6,14.1h7.2c5.9,0,9.1-2.2,9.8-6.7c0.1-0.7,0.1-1.3,0.1-1.8c0-1.8-0.6-3.2-1.7-4.1S225.1,92.2,222.7,92.2z"/>
		<path d="M271.5,96l-5.5,31.3h-5.7l0.9-5.2h-0.4c-0.8,1.7-2,3-3.6,4.1c-1.6,1.1-3.5,1.6-5.6,1.6c-3.1,0-5.5-0.9-7.2-2.7
			c-1.7-1.8-2.6-4.1-2.6-7c0-1.5,0.2-3.3,0.6-5.4l3.1-16.8h6l-3,17c-0.3,1.5-0.4,2.7-0.4,3.8c0,1.8,0.5,3.2,1.5,4.2
			c1,1,2.5,1.5,4.4,1.5c2.4,0,4.2-0.8,5.7-2.4c1.4-1.6,2.4-3.7,2.8-6.3l3.1-17.8H271.5z"/>
		<path d="M275.9,127.3l5.5-31.3h5.7l-0.9,5.2h0.4c0.6-1.6,1.7-2.9,3.2-4c1.5-1.1,3.4-1.6,5.5-1.6c0.9,0,1.8,0.1,2.7,0.4l-1.2,5.8
			c-0.8-0.3-1.8-0.5-2.9-0.5c-2.5,0-4.6,0.8-6.1,2.4c-1.5,1.6-2.5,3.8-2.9,6.4l-3.1,17.2H275.9z"/>
		<path d="M308.4,127.8c-2.7,0-4.9-0.8-6.7-2.4s-2.7-3.7-2.7-6.4c0-0.4,0-0.8,0.1-1.1c0.2-2.8,1.4-5,3.6-6.6
			c2.2-1.6,5.2-2.4,9.1-2.4h8.2l0.3-2c0.1-0.6,0.1-1,0.1-1.3c0-1.4-0.5-2.6-1.5-3.6c-1-1-2.5-1.5-4.6-1.5c-1.7,0-3,0.3-4.1,0.9
			c-1,0.6-1.7,1.5-2.1,2.5h-5.8c0.4-2.5,1.7-4.5,3.9-6.1c2.2-1.6,5-2.4,8.4-2.4c3.7,0,6.5,0.9,8.5,2.7c2,1.8,3,4.2,3,7.3
			c0,1-0.2,2.5-0.5,4.3l-3.1,17.5h-5.8l0.7-4.1h-0.4c-0.7,1.3-1.7,2.4-3.2,3.3S310.6,127.8,308.4,127.8z M305.1,118.3
			c0,1.3,0.5,2.4,1.4,3.2c0.9,0.8,2.2,1.3,3.9,1.3c2,0,3.7-0.6,5.3-1.7s2.5-2.5,2.8-4.3l0.7-3.6h-7.3c-2.2,0-3.9,0.5-5,1.5
			C305.6,115.6,305.1,116.9,305.1,118.3z"/>
		<path d="M332.6,127.3l7.5-42.2h6l-7.5,42.2H332.6z"/>
		<path d="M363.4,127.3h-6.1l6.2-34.9h-12.2l0.9-5.6h30.4l-0.9,5.6h-12.1L363.4,127.3z"/>
		<path d="M380.3,111l0.6-3.6c0.7-3.7,2.2-6.6,4.7-8.7c2.5-2.2,5.6-3.2,9.2-3.2c4,0,7.2,1.1,9.6,3.4c2.4,2.3,3.7,5.4,3.7,9.5
			c0,1.2-0.1,2.4-0.4,3.7l-0.7,3.6c-0.7,3.8-2.3,6.7-4.7,8.8c-2.4,2.1-5.6,3.2-9.6,3.2c-3.7,0-6.8-1.1-9.2-3.3
			c-2.4-2.2-3.6-5.3-3.6-9.1C380,113.7,380.1,112.3,380.3,111z M386.9,108.5l-0.6,3.4c-0.2,1.1-0.3,2.2-0.3,3.1c0,2.3,0.7,4.1,2,5.5
			c1.3,1.4,3.1,2.1,5.4,2.1c2.1,0,3.8-0.7,5.2-2.1s2.3-3.4,2.7-6l0.6-3.6c0.1-0.6,0.1-1.5,0.1-2.7c0-2.2-0.7-4-2-5.3
			s-3.1-2.1-5.3-2.1c-2,0-3.8,0.7-5.1,2C388.2,104,387.3,106,386.9,108.5z"/>
		<path d="M444.4,96l-5.5,31.3h-5.7l0.9-5.2h-0.4c-0.8,1.7-2,3-3.6,4.1c-1.6,1.1-3.5,1.6-5.6,1.6c-3.1,0-5.5-0.9-7.2-2.7
			c-1.7-1.8-2.6-4.1-2.6-7c0-1.5,0.2-3.3,0.6-5.4l3.1-16.8h6l-3,17c-0.3,1.5-0.4,2.7-0.4,3.8c0,1.8,0.5,3.2,1.5,4.2
			c1,1,2.5,1.5,4.4,1.5c2.4,0,4.2-0.8,5.7-2.4c1.4-1.6,2.4-3.7,2.8-6.3l3.1-17.8H444.4z"/>
		<path d="M448.8,127.3l5.5-31.3h5.7l-0.9,5.2h0.4c0.6-1.6,1.7-2.9,3.2-4c1.5-1.1,3.4-1.6,5.5-1.6c0.9,0,1.8,0.1,2.7,0.4l-1.2,5.8
			c-0.8-0.3-1.8-0.5-2.9-0.5c-2.5,0-4.6,0.8-6.1,2.4c-1.5,1.6-2.5,3.8-2.9,6.4l-3.1,17.2H448.8z"/>
		<path d="M475.2,104.8c0-2.8,1-5.1,3-6.8c2-1.7,4.9-2.6,8.5-2.6c3.6,0,6.4,0.9,8.5,2.6c2.1,1.7,3.1,3.8,3.1,6.1v0.7h-5.5v-0.3
			c0-1.1-0.6-2.1-1.7-3c-1.1-0.9-2.6-1.4-4.5-1.4c-1.7,0-3.1,0.4-4.1,1.2c-1,0.8-1.5,1.7-1.5,2.9c0,0.6,0.1,1.2,0.4,1.7
			c0.3,0.5,0.8,0.9,1.5,1.3s1.3,0.7,1.7,0.8c0.4,0.2,1.2,0.4,2.4,0.8c0.4,0.1,0.6,0.2,0.8,0.3c1,0.3,1.9,0.7,2.7,1
			c0.8,0.3,1.5,0.7,2.3,1.2s1.4,1.1,1.9,1.7c0.5,0.6,0.9,1.3,1.2,2.2c0.3,0.9,0.5,1.8,0.5,2.9c0,3.1-1.1,5.6-3.4,7.3s-5.3,2.6-9,2.6
			c-3.6,0-6.5-0.9-8.9-2.6s-3.5-3.9-3.5-6.6c0-0.3,0-0.4,0-0.5h5.6c0,0,0,0.1,0,0.3c0,0.1,0,0.2,0,0.3c0.2,1.2,1,2.2,2.3,3
			c1.3,0.8,2.9,1.2,4.9,1.2c2,0,3.5-0.4,4.6-1.2s1.6-1.9,1.6-3.2c0-0.4,0-0.7-0.1-1c-0.1-0.3-0.2-0.6-0.4-0.8
			c-0.2-0.3-0.4-0.5-0.5-0.7c-0.2-0.2-0.4-0.4-0.8-0.6c-0.4-0.2-0.7-0.4-0.9-0.5c-0.2-0.1-0.6-0.3-1.1-0.4c-0.6-0.2-0.9-0.3-1.1-0.4
			c-0.2-0.1-0.6-0.2-1.3-0.4c-0.6-0.2-1.2-0.4-1.6-0.5c-0.4-0.2-1-0.4-1.7-0.7s-1.3-0.6-1.7-0.9c-0.5-0.3-1-0.7-1.5-1.2
			c-0.5-0.5-1-1-1.3-1.5c-0.3-0.5-0.6-1.1-0.8-1.9C475.3,106.4,475.2,105.6,475.2,104.8z"/>
	</g>
	<g>
		<defs>
			<path id="SVGID_1_" d="M127.5,55c-22.6,0-41,18.4-41,41c0,9.3,3.2,18.4,9,25.6c7.1,8.9,29.6,30.1,30.5,31l1.5,1.4l1.5-1.4
				c1-0.9,23.4-22.1,30.5-31c5.8-7.2,9-16.3,9-25.6C168.5,73.4,150.1,55,127.5,55z"/>
		</defs>
		<use xlink:href="#SVGID_1_"  style="overflow:visible;fill:#29B2FB;"/>
		<clipPath id="SVGID_2_">
			<use xlink:href="#SVGID_1_"  style="overflow:visible;"/>
		</clipPath>
		<g class="st0">
			<polygon class="st1" points="139.7,91.5 166.5,76.9 162.3,68.8 135.6,89.8 			"/>
			<polygon class="st1" points="134.4,88.2 158.1,64.9 152.9,57.6 131.3,88.2 			"/>
			<polygon class="st1" points="130.7,87.3 144.6,57.7 138.4,51.9 129.5,87.6 			"/>
			<polygon class="st1" points="127.9,87.3 131.6,39.9 121.5,38 126.1,87.9 			"/>
			<path class="st1" d="M124.2,87.6l-8.9-34.5c0,0-9.1,5.7-8.2,6c0.9,0.3,16.5,28.8,16.5,28.8L124.2,87.6z"/>
			<polygon class="st1" points="120.6,87.9 102,57.6 94.4,65.2 119.3,89.2 			"/>
			<path class="st1" d="M117.6,89.5L90.2,70c0,0-4.5,7.5-3.6,7.8c0.9,0.3,29.9,12.9,29.9,12.9L117.6,89.5z"/>
			<polygon class="st1" points="114.4,92.9 85.4,84.5 83.6,94.1 115.2,95.9 			"/>
			<polygon class="st1" points="140,92.9 168.3,83.8 169.8,92.3 140,95.3 			"/>
		</g>
		<g class="st0">
			<polygon class="st1" points="115.9,100 89,114.6 93.2,122.7 119.9,101.7 			"/>
			<polygon class="st1" points="121.1,103.3 97.5,126.7 102.6,133.9 124.2,103.3 			"/>
			<polygon class="st1" points="124.8,104.2 110.9,133.8 117.1,139.6 126,103.9 			"/>
			<polygon class="st1" points="127.6,104.2 123.9,151.6 134,153.5 129.4,103.6 			"/>
			<path class="st1" d="M131.3,103.9l8.9,34.5c0,0,9.1-5.7,8.2-6s-16.5-28.8-16.5-28.8L131.3,103.9z"/>
			<polygon class="st1" points="135,103.6 153.5,133.9 161.1,126.4 136.2,102.4 			"/>
			<path class="st1" d="M137.9,102l27.4,19.5c0,0,4.5-7.5,3.6-7.8S139,100.8,139,100.8L137.9,102z"/>
			<polygon class="st1" points="141.1,98.7 170.1,107.1 171.9,97.4 140.3,95.6 			"/>
			<polygon class="st1" points="115.6,98.7 87.2,107.7 85.7,99.2 115.5,96.2 			"/>
		</g>
		<g class="st2">
			<circle class="st3" cx="127.5" cy="94.4" r="12.7"/>
			<path class="st1" d="M127.5,108.3c-7.6,0-13.9-6.2-13.9-13.9s6.2-13.9,13.9-13.9s13.9,6.2,13.9,13.9S135.1,108.3,127.5,108.3z
				 M127.5,82.9c-6.3,0-11.5,5.1-11.5,11.5s5.1,11.5,11.5,11.5c6.3,0,11.5-5.1,11.5-11.5S133.8,82.9,127.5,82.9z"/>
		</g>
		<g class="st2">
			<path class="st4" d="M102.7,141.4c0,0,19-36.5,66-38.9c0,0-36.2,8.4-54.6,47.3L102.7,141.4z"/>
			<path class="st5" d="M113.8,150.5c0,0,9-33.2,54.9-47.9c0,0-31.1,15.1-39.8,50.9L113.8,150.5z"/>
			<path class="st6" d="M129.2,154.4c0,0,1.1-29.8,39.5-51.9c0,0-18.7,17.8-21.4,48.8L129.2,154.4z"/>
			<path class="st7" d="M147.3,151.4c0,0-1.6-23.5,21.4-48.8C168.7,102.5,180.5,133,147.3,151.4z"/>
		</g>
		<g class="st2">
			<path class="st4" d="M152.6,142.3c0,0-19-36.5-66-38.9c0,0,36.2,8.4,54.6,47.3L152.6,142.3z"/>
			<path class="st5" d="M141.5,151.4c0,0-9-33.2-54.9-47.9c0,0,31.1,15.1,39.8,50.9L141.5,151.4z"/>
			<path class="st6" d="M126.1,155.3c0,0-1.5-30.4-39.5-51.9c0,0,18.7,17.8,21.4,48.8L126.1,155.3z"/>
			<path class="st7" d="M108,152.3c0,0,1.2-23.8-21.4-48.8C86.6,103.4,74.9,133.9,108,152.3z"/>
		</g>
		<g class="st2">
			<path class="st1" d="M126.7,117.4l-0.7-0.5c-0.1-0.1-15.1-11.4-39.4-12.3l0.1-2.4c22.4,0.8,36.8,9.9,40.1,12.2
				c20.6-13.6,41.6-13.5,42.5-13.5l0,2.4c0,0,0,0,0,0l0,0c-0.3,0-21.6-0.1-41.8,13.5L126.7,117.4z"/>
		</g>
		<path class="st8" d="M141,107.8"/>
	</g>
</g>
</svg>
